<mxfile host="app.diagrams.net" modified="2024-04-21T21:47:38.599Z" agent="Mozilla/5.0 (Windows NT 10.0; Win64; x64) AppleWebKit/537.36 (KHTML, like Gecko) Chrome/123.0.0.0 Safari/537.36" etag="SwayV7QM0hyKrXMVSRrp" version="24.2.7" type="google">
  <diagram name="Страница — 1" id="n-bX-CXp-rjFbdDKz4Xl">
    <mxGraphModel grid="0" page="0" gridSize="10" guides="1" tooltips="1" connect="1" arrows="1" fold="1" pageScale="1" pageWidth="827" pageHeight="1169" math="0" shadow="0">
      <root>
        <mxCell id="0" />
        <mxCell id="1" parent="0" />
        <mxCell id="06Glb-n01zp1_OK8XZ88-12" style="edgeStyle=orthogonalEdgeStyle;rounded=0;orthogonalLoop=1;jettySize=auto;html=1;exitX=0.5;exitY=1;exitDx=0;exitDy=0;entryX=0.5;entryY=0;entryDx=0;entryDy=0;endArrow=none;endFill=0;" edge="1" parent="1" source="06Glb-n01zp1_OK8XZ88-1" target="06Glb-n01zp1_OK8XZ88-2">
          <mxGeometry relative="1" as="geometry" />
        </mxCell>
        <mxCell id="06Glb-n01zp1_OK8XZ88-13" style="edgeStyle=orthogonalEdgeStyle;rounded=0;orthogonalLoop=1;jettySize=auto;html=1;exitX=0.5;exitY=1;exitDx=0;exitDy=0;entryX=0.5;entryY=0;entryDx=0;entryDy=0;endArrow=none;endFill=0;" edge="1" parent="1" source="06Glb-n01zp1_OK8XZ88-1" target="06Glb-n01zp1_OK8XZ88-3">
          <mxGeometry relative="1" as="geometry" />
        </mxCell>
        <mxCell id="06Glb-n01zp1_OK8XZ88-14" style="edgeStyle=orthogonalEdgeStyle;rounded=0;orthogonalLoop=1;jettySize=auto;html=1;exitX=0.5;exitY=1;exitDx=0;exitDy=0;endArrow=none;endFill=0;" edge="1" parent="1" source="06Glb-n01zp1_OK8XZ88-1" target="06Glb-n01zp1_OK8XZ88-4">
          <mxGeometry relative="1" as="geometry" />
        </mxCell>
        <mxCell id="06Glb-n01zp1_OK8XZ88-15" style="edgeStyle=orthogonalEdgeStyle;rounded=0;orthogonalLoop=1;jettySize=auto;html=1;exitX=0.5;exitY=1;exitDx=0;exitDy=0;endArrow=none;endFill=0;entryX=0.5;entryY=0;entryDx=0;entryDy=0;" edge="1" parent="1" source="06Glb-n01zp1_OK8XZ88-1" target="06Glb-n01zp1_OK8XZ88-5">
          <mxGeometry relative="1" as="geometry">
            <mxPoint x="550" y="180" as="sourcePoint" />
            <Array as="points">
              <mxPoint x="530" y="210" />
              <mxPoint x="920" y="210" />
            </Array>
          </mxGeometry>
        </mxCell>
        <mxCell id="06Glb-n01zp1_OK8XZ88-1" value="Домашняя страницы Основное" style="rounded=0;whiteSpace=wrap;html=1;" vertex="1" parent="1">
          <mxGeometry x="470" y="120" width="120" height="60" as="geometry" />
        </mxCell>
        <mxCell id="06Glb-n01zp1_OK8XZ88-6" style="edgeStyle=orthogonalEdgeStyle;rounded=0;orthogonalLoop=1;jettySize=auto;html=1;exitX=0.5;exitY=1;exitDx=0;exitDy=0;endArrow=none;endFill=0;" edge="1" parent="1" source="06Glb-n01zp1_OK8XZ88-2">
          <mxGeometry relative="1" as="geometry">
            <mxPoint x="180" y="460" as="targetPoint" />
          </mxGeometry>
        </mxCell>
        <mxCell id="06Glb-n01zp1_OK8XZ88-2" value="Сотрудники" style="rounded=0;whiteSpace=wrap;html=1;" vertex="1" parent="1">
          <mxGeometry x="120" y="240" width="120" height="60" as="geometry" />
        </mxCell>
        <mxCell id="06Glb-n01zp1_OK8XZ88-7" style="edgeStyle=orthogonalEdgeStyle;rounded=0;orthogonalLoop=1;jettySize=auto;html=1;exitX=0.5;exitY=1;exitDx=0;exitDy=0;endArrow=none;endFill=0;" edge="1" parent="1" source="06Glb-n01zp1_OK8XZ88-3">
          <mxGeometry relative="1" as="geometry">
            <mxPoint x="370" y="498" as="targetPoint" />
          </mxGeometry>
        </mxCell>
        <mxCell id="06Glb-n01zp1_OK8XZ88-3" value="История" style="rounded=0;whiteSpace=wrap;html=1;" vertex="1" parent="1">
          <mxGeometry x="310" y="240" width="120" height="60" as="geometry" />
        </mxCell>
        <mxCell id="06Glb-n01zp1_OK8XZ88-4" value="Новости" style="rounded=0;whiteSpace=wrap;html=1;" vertex="1" parent="1">
          <mxGeometry x="660" y="240" width="120" height="60" as="geometry" />
        </mxCell>
        <mxCell id="06Glb-n01zp1_OK8XZ88-9" style="edgeStyle=orthogonalEdgeStyle;rounded=0;orthogonalLoop=1;jettySize=auto;html=1;exitX=0.5;exitY=1;exitDx=0;exitDy=0;endArrow=none;endFill=0;" edge="1" parent="1">
          <mxGeometry relative="1" as="geometry">
            <mxPoint x="919.58" y="441" as="targetPoint" />
            <Array as="points">
              <mxPoint x="919.58" y="480" />
              <mxPoint x="919.58" y="480" />
            </Array>
            <mxPoint x="919.58" y="260" as="sourcePoint" />
          </mxGeometry>
        </mxCell>
        <mxCell id="06Glb-n01zp1_OK8XZ88-5" value="Контакты" style="rounded=0;whiteSpace=wrap;html=1;" vertex="1" parent="1">
          <mxGeometry x="860" y="240" width="120" height="60" as="geometry" />
        </mxCell>
        <mxCell id="bWioTM2hWXZGxEJpIJ1L-1" style="edgeStyle=orthogonalEdgeStyle;rounded=0;orthogonalLoop=1;jettySize=auto;html=1;exitX=1;exitY=0.5;exitDx=0;exitDy=0;endArrow=none;endFill=0;" edge="1" parent="1" source="06Glb-n01zp1_OK8XZ88-16">
          <mxGeometry relative="1" as="geometry">
            <mxPoint x="180" y="350" as="targetPoint" />
          </mxGeometry>
        </mxCell>
        <mxCell id="06Glb-n01zp1_OK8XZ88-16" value="Список сотрудников в виде фото" style="rounded=0;whiteSpace=wrap;html=1;fillColor=default;strokeColor=none;" vertex="1" parent="1">
          <mxGeometry x="20" y="320" width="120" height="60" as="geometry" />
        </mxCell>
        <mxCell id="bWioTM2hWXZGxEJpIJ1L-2" style="edgeStyle=orthogonalEdgeStyle;rounded=0;orthogonalLoop=1;jettySize=auto;html=1;exitX=1;exitY=0.5;exitDx=0;exitDy=0;endArrow=none;endFill=0;" edge="1" parent="1" source="bWioTM2hWXZGxEJpIJ1L-3">
          <mxGeometry relative="1" as="geometry">
            <mxPoint x="180" y="400" as="targetPoint" />
          </mxGeometry>
        </mxCell>
        <mxCell id="bWioTM2hWXZGxEJpIJ1L-3" value="Связь с сотрудниками" style="rounded=0;whiteSpace=wrap;html=1;strokeColor=none;" vertex="1" parent="1">
          <mxGeometry x="20" y="370" width="120" height="60" as="geometry" />
        </mxCell>
        <mxCell id="bWioTM2hWXZGxEJpIJ1L-9" style="edgeStyle=orthogonalEdgeStyle;rounded=0;orthogonalLoop=1;jettySize=auto;html=1;exitX=1;exitY=0.5;exitDx=0;exitDy=0;endArrow=none;endFill=0;" edge="1" parent="1" source="bWioTM2hWXZGxEJpIJ1L-10">
          <mxGeometry relative="1" as="geometry">
            <mxPoint x="180" y="460" as="targetPoint" />
          </mxGeometry>
        </mxCell>
        <mxCell id="bWioTM2hWXZGxEJpIJ1L-10" value="Подвал" style="rounded=0;whiteSpace=wrap;html=1;strokeColor=none;" vertex="1" parent="1">
          <mxGeometry x="20" y="430" width="120" height="60" as="geometry" />
        </mxCell>
        <mxCell id="bWioTM2hWXZGxEJpIJ1L-13" style="edgeStyle=orthogonalEdgeStyle;rounded=0;orthogonalLoop=1;jettySize=auto;html=1;exitX=1;exitY=0.5;exitDx=0;exitDy=0;endArrow=none;endFill=0;" edge="1" parent="1" source="bWioTM2hWXZGxEJpIJ1L-14">
          <mxGeometry relative="1" as="geometry">
            <mxPoint x="370" y="390" as="targetPoint" />
          </mxGeometry>
        </mxCell>
        <mxCell id="bWioTM2hWXZGxEJpIJ1L-14" value="История создания" style="rounded=0;whiteSpace=wrap;html=1;strokeColor=none;" vertex="1" parent="1">
          <mxGeometry x="220" y="313" width="120" height="35" as="geometry" />
        </mxCell>
        <mxCell id="bWioTM2hWXZGxEJpIJ1L-18" style="edgeStyle=orthogonalEdgeStyle;rounded=0;orthogonalLoop=1;jettySize=auto;html=1;exitX=1;exitY=0.5;exitDx=0;exitDy=0;endArrow=none;endFill=0;" edge="1" parent="1" source="bWioTM2hWXZGxEJpIJ1L-15">
          <mxGeometry relative="1" as="geometry">
            <mxPoint x="370" y="497" as="targetPoint" />
            <Array as="points">
              <mxPoint x="371" y="383" />
              <mxPoint x="371" y="497" />
              <mxPoint x="370" y="497" />
            </Array>
          </mxGeometry>
        </mxCell>
        <mxCell id="bWioTM2hWXZGxEJpIJ1L-15" value="Руководство&lt;span id=&quot;docs-internal-guid-d5048df0-7fff-7661-fb04-355db28b799f&quot;&gt;&lt;/span&gt;" style="rounded=0;whiteSpace=wrap;html=1;strokeColor=none;" vertex="1" parent="1">
          <mxGeometry x="217" y="353" width="120" height="60" as="geometry" />
        </mxCell>
        <mxCell id="bWioTM2hWXZGxEJpIJ1L-21" style="edgeStyle=orthogonalEdgeStyle;rounded=0;orthogonalLoop=1;jettySize=auto;html=1;endArrow=none;endFill=0;" edge="1" parent="1" source="bWioTM2hWXZGxEJpIJ1L-22">
          <mxGeometry relative="1" as="geometry">
            <mxPoint x="720" y="356" as="targetPoint" />
            <mxPoint x="664" y="360" as="sourcePoint" />
          </mxGeometry>
        </mxCell>
        <mxCell id="bWioTM2hWXZGxEJpIJ1L-25" style="edgeStyle=orthogonalEdgeStyle;rounded=0;orthogonalLoop=1;jettySize=auto;html=1;exitX=0.5;exitY=1;exitDx=0;exitDy=0;endArrow=none;endFill=0;" edge="1" parent="1" source="06Glb-n01zp1_OK8XZ88-4">
          <mxGeometry relative="1" as="geometry">
            <mxPoint x="720" y="533" as="targetPoint" />
            <mxPoint x="719.58" y="360" as="sourcePoint" />
          </mxGeometry>
        </mxCell>
        <mxCell id="bWioTM2hWXZGxEJpIJ1L-22" value="Блок актуальных новостей" style="rounded=0;whiteSpace=wrap;html=1;strokeColor=none;" vertex="1" parent="1">
          <mxGeometry x="540" y="327" width="120" height="60" as="geometry" />
        </mxCell>
        <mxCell id="bWioTM2hWXZGxEJpIJ1L-34" style="edgeStyle=orthogonalEdgeStyle;rounded=0;orthogonalLoop=1;jettySize=auto;html=1;endArrow=none;endFill=0;" edge="1" parent="1" source="sP_FJRFzxLsKLMiPxYE3-11">
          <mxGeometry relative="1" as="geometry">
            <mxPoint x="720" y="533" as="targetPoint" />
            <mxPoint x="664" y="600" as="sourcePoint" />
          </mxGeometry>
        </mxCell>
        <mxCell id="bWioTM2hWXZGxEJpIJ1L-45" style="edgeStyle=orthogonalEdgeStyle;rounded=0;orthogonalLoop=1;jettySize=auto;html=1;exitX=1;exitY=0.5;exitDx=0;exitDy=0;endArrow=none;endFill=0;" edge="1" parent="1" source="bWioTM2hWXZGxEJpIJ1L-46">
          <mxGeometry relative="1" as="geometry">
            <mxPoint x="920" y="360" as="targetPoint" />
          </mxGeometry>
        </mxCell>
        <mxCell id="bWioTM2hWXZGxEJpIJ1L-46" value="Контактные данные" style="rounded=0;whiteSpace=wrap;html=1;strokeColor=none;" vertex="1" parent="1">
          <mxGeometry x="760" y="330" width="120" height="60" as="geometry" />
        </mxCell>
        <mxCell id="bWioTM2hWXZGxEJpIJ1L-47" style="edgeStyle=orthogonalEdgeStyle;rounded=0;orthogonalLoop=1;jettySize=auto;html=1;exitX=1;exitY=0.5;exitDx=0;exitDy=0;endArrow=none;endFill=0;" edge="1" parent="1" source="bWioTM2hWXZGxEJpIJ1L-48">
          <mxGeometry relative="1" as="geometry">
            <mxPoint x="920" y="420" as="targetPoint" />
          </mxGeometry>
        </mxCell>
        <mxCell id="bWioTM2hWXZGxEJpIJ1L-48" value="Форма обратной связи" style="rounded=0;whiteSpace=wrap;html=1;strokeColor=none;" vertex="1" parent="1">
          <mxGeometry x="760" y="390" width="120" height="60" as="geometry" />
        </mxCell>
        <mxCell id="bWioTM2hWXZGxEJpIJ1L-49" style="edgeStyle=orthogonalEdgeStyle;rounded=0;orthogonalLoop=1;jettySize=auto;html=1;exitX=1;exitY=0.5;exitDx=0;exitDy=0;endArrow=none;endFill=0;" edge="1" parent="1" source="bWioTM2hWXZGxEJpIJ1L-50">
          <mxGeometry relative="1" as="geometry">
            <mxPoint x="920" y="480" as="targetPoint" />
          </mxGeometry>
        </mxCell>
        <mxCell id="bWioTM2hWXZGxEJpIJ1L-50" value="Подвал" style="rounded=0;whiteSpace=wrap;html=1;strokeColor=none;" vertex="1" parent="1">
          <mxGeometry x="760" y="450" width="120" height="60" as="geometry" />
        </mxCell>
        <mxCell id="sP_FJRFzxLsKLMiPxYE3-1" value="Связь с сотрудниками&lt;span id=&quot;docs-internal-guid-d5048df0-7fff-7661-fb04-355db28b799f&quot;&gt;&lt;/span&gt;" style="rounded=0;whiteSpace=wrap;html=1;strokeColor=none;" vertex="1" parent="1">
          <mxGeometry x="217" y="410" width="120" height="60" as="geometry" />
        </mxCell>
        <mxCell id="sP_FJRFzxLsKLMiPxYE3-4" style="edgeStyle=orthogonalEdgeStyle;rounded=0;orthogonalLoop=1;jettySize=auto;html=1;endArrow=none;endFill=0;" edge="1" parent="1" source="sP_FJRFzxLsKLMiPxYE3-1">
          <mxGeometry relative="1" as="geometry">
            <mxPoint x="370" y="497" as="targetPoint" />
            <mxPoint x="340" y="438" as="sourcePoint" />
          </mxGeometry>
        </mxCell>
        <mxCell id="sP_FJRFzxLsKLMiPxYE3-6" style="edgeStyle=orthogonalEdgeStyle;rounded=0;orthogonalLoop=1;jettySize=auto;html=1;endArrow=none;endFill=0;" edge="1" parent="1" source="sP_FJRFzxLsKLMiPxYE3-7">
          <mxGeometry relative="1" as="geometry">
            <mxPoint x="372" y="497" as="targetPoint" />
            <mxPoint x="340" y="486" as="sourcePoint" />
          </mxGeometry>
        </mxCell>
        <mxCell id="sP_FJRFzxLsKLMiPxYE3-7" value="Подвал" style="rounded=0;whiteSpace=wrap;html=1;strokeColor=none;" vertex="1" parent="1">
          <mxGeometry x="220" y="467" width="120" height="60" as="geometry" />
        </mxCell>
        <mxCell id="sP_FJRFzxLsKLMiPxYE3-9" value="Связь с сотрудниками&lt;span id=&quot;docs-internal-guid-d5048df0-7fff-7661-fb04-355db28b799f&quot;&gt;&lt;/span&gt;" style="rounded=0;whiteSpace=wrap;html=1;strokeColor=none;" vertex="1" parent="1">
          <mxGeometry x="540" y="425" width="120" height="60" as="geometry" />
        </mxCell>
        <mxCell id="sP_FJRFzxLsKLMiPxYE3-10" style="edgeStyle=orthogonalEdgeStyle;rounded=0;orthogonalLoop=1;jettySize=auto;html=1;endArrow=none;endFill=0;" edge="1" parent="1" source="sP_FJRFzxLsKLMiPxYE3-9">
          <mxGeometry relative="1" as="geometry">
            <mxPoint x="719" y="455" as="targetPoint" />
            <mxPoint x="660" y="456" as="sourcePoint" />
          </mxGeometry>
        </mxCell>
        <mxCell id="sP_FJRFzxLsKLMiPxYE3-11" value="Подвал" style="rounded=0;whiteSpace=wrap;html=1;strokeColor=none;" vertex="1" parent="1">
          <mxGeometry x="540" y="500" width="120" height="60" as="geometry" />
        </mxCell>
      </root>
    </mxGraphModel>
  </diagram>
</mxfile>
